<svg xmlns="http://www.w3.org/2000/svg" viewBox="0 0 1280 800" font-family="-apple-system, BlinkMacSystemFont, 'Segoe UI', Inter, sans-serif">
  <rect width="1280" height="800" fill="#FFFFFF"/>

  <!-- SIDEBAR -->
  <rect x="0" y="0" width="240" height="800" fill="#F7F7F8"/>
  <line x1="240" y1="0" x2="240" y2="800" stroke="#E5E7EB" stroke-width="1"/>

  <g transform="translate(24, 28)">
    <rect width="36" height="36" rx="8" fill="#2563EB"/>
    <text x="18" y="24" fill="white" font-size="16" font-weight="700" text-anchor="middle">S</text>
    <text x="48" y="16" fill="#1D1D1F" font-size="15" font-weight="600">SyncStudy</text>
    <text x="48" y="32" fill="#9CA3AF" font-size="11">Estudia en sincronía</text>
  </g>

  <g transform="translate(16, 96)">
    <rect width="208" height="36" rx="8" fill="transparent"/>
    <circle cx="28" cy="18" r="9" fill="none" stroke="#4B5563" stroke-width="1.5"/>
    <text x="48" y="22" fill="#4B5563" font-size="14" font-weight="500">Hoy</text>

    <g transform="translate(0, 44)">
      <rect width="208" height="36" rx="8" fill="transparent"/>
      <rect x="20" y="9" width="16" height="16" rx="2" fill="none" stroke="#4B5563" stroke-width="1.5"/>
      <text x="48" y="22" fill="#4B5563" font-size="14" font-weight="500">Calendario</text>
    </g>

    <!-- Active: Mi grupo -->
    <g transform="translate(0, 88)">
      <rect width="208" height="36" rx="8" fill="white"/>
      <circle cx="24" cy="18" r="5" fill="none" stroke="#1D1D1F" stroke-width="1.5"/>
      <circle cx="34" cy="18" r="5" fill="none" stroke="#1D1D1F" stroke-width="1.5"/>
      <text x="48" y="22" fill="#1D1D1F" font-size="14" font-weight="500">Mi grupo</text>
    </g>

    <g transform="translate(0, 132)">
      <rect width="208" height="36" rx="8" fill="transparent"/>
      <rect x="20" y="16" width="3" height="10" rx="1" fill="#4B5563"/>
      <rect x="25" y="12" width="3" height="14" rx="1" fill="#4B5563"/>
      <rect x="30" y="8" width="3" height="18" rx="1" fill="#4B5563"/>
      <text x="48" y="22" fill="#4B5563" font-size="14" font-weight="500">Resumen semanal</text>
    </g>
  </g>

  <g transform="translate(16, 720)">
    <rect width="208" height="60" rx="8" fill="white"/>
    <circle cx="34" cy="30" r="18" fill="#2563EB"/>
    <text x="34" y="36" fill="white" font-size="14" font-weight="600" text-anchor="middle">F</text>
    <text x="62" y="26" fill="#1D1D1F" font-size="13" font-weight="600">Fabián Riquelme</text>
    <text x="62" y="42" fill="#9CA3AF" font-size="11">TUPA · 2° año</text>
  </g>

  <!-- TOPBAR -->
  <line x1="240" y1="64" x2="1280" y2="64" stroke="#E5E7EB" stroke-width="1"/>
  <text x="272" y="40" fill="#1D1D1F" font-size="20" font-weight="600">Mi grupo</text>

  <g transform="translate(1136, 16)">
    <rect width="128" height="36" rx="8" fill="#2563EB"/>
    <line x1="20" y1="18" x2="28" y2="18" stroke="white" stroke-width="2" stroke-linecap="round"/>
    <line x1="24" y1="14" x2="24" y2="22" stroke="white" stroke-width="2" stroke-linecap="round"/>
    <text x="42" y="22" fill="white" font-size="13" font-weight="500">Nueva tarea</text>
  </g>

  <!-- =========================================== -->
  <!-- HEADER DEL GRUPO -->
  <!-- =========================================== -->
  <g transform="translate(272, 96)">
    <text x="0" y="0" fill="#1D1D1F" font-size="24" font-weight="600">TUPA · 2° año</text>
    <circle cx="6" cy="22" r="3" fill="#10B981"/>
    <text x="16" y="26" fill="#9CA3AF" font-size="13">6 estudiantes · sincronización en tiempo real</text>

    <!-- Stat a la derecha -->
    <g transform="translate(720, 0)">
      <text x="140" y="32" fill="#10B981" font-size="32" font-weight="700" text-anchor="end">15</text>
      <text x="140" y="48" fill="#9CA3AF" font-size="11" text-anchor="end" letter-spacing="0.5">TAREAS COMPLETADAS ESTA SEMANA</text>
    </g>

    <line x1="0" y1="68" x2="860" y2="68" stroke="#E5E7EB" stroke-width="1"/>
  </g>

  <!-- =========================================== -->
  <!-- GRID DE MIEMBROS -->
  <!-- =========================================== -->
  <g transform="translate(272, 188)">

    <!-- Fabián (tú) -->
    <g transform="translate(0, 0)">
      <rect width="280" height="220" rx="12" fill="#EFF6FF" stroke="#2563EB" stroke-width="1"/>
      <!-- Header -->
      <circle cx="42" cy="42" r="22" fill="#2563EB"/>
      <text x="42" y="49" fill="white" font-size="16" font-weight="600" text-anchor="middle">F</text>
      <text x="78" y="38" fill="#1D1D1F" font-size="15" font-weight="600">Fabián Riquelme (tú)</text>
      <text x="78" y="54" fill="#9CA3AF" font-size="11">2/4 tareas esta semana</text>

      <!-- Mini tareas -->
      <g transform="translate(20, 84)">
        <rect width="240" height="28" rx="6" fill="#F7F7F8"/>
        <circle cx="14" cy="14" r="6" fill="none" stroke="#D1D5DB" stroke-width="2"/>
        <text x="28" y="18" fill="#4B5563" font-size="12">Estudiar para prueba de Suelos</text>
      </g>
      <g transform="translate(20, 118)">
        <rect width="240" height="28" rx="6" fill="#F7F7F8"/>
        <circle cx="14" cy="14" r="6" fill="none" stroke="#D1D5DB" stroke-width="2"/>
        <text x="28" y="18" fill="#4B5563" font-size="12">Entregar informe de cultivos</text>
      </g>
      <g transform="translate(20, 152)">
        <rect width="240" height="28" rx="6" fill="#F7F7F8"/>
        <circle cx="14" cy="14" r="6" fill="none" stroke="#D1D5DB" stroke-width="2"/>
        <text x="28" y="18" fill="#4B5563" font-size="12">Ejercicios de Estadística</text>
      </g>

      <!-- Progreso -->
      <g transform="translate(20, 186)">
        <text x="0" y="0" fill="#4B5563" font-size="11">Progreso semanal</text>
        <text x="240" y="0" fill="#4B5563" font-size="11" text-anchor="end">50%</text>
        <rect x="0" y="8" width="240" height="6" rx="3" fill="#F7F7F8"/>
        <rect x="0" y="8" width="120" height="6" rx="3" fill="#10B981"/>
      </g>
    </g>

    <!-- Camila -->
    <g transform="translate(296, 0)">
      <rect width="280" height="220" rx="12" fill="white" stroke="#E5E7EB" stroke-width="1"/>
      <circle cx="42" cy="42" r="22" fill="#EC4899"/>
      <text x="42" y="49" fill="white" font-size="16" font-weight="600" text-anchor="middle">C</text>
      <text x="78" y="38" fill="#1D1D1F" font-size="15" font-weight="600">Camila Soto</text>
      <text x="78" y="54" fill="#9CA3AF" font-size="11">3/3 tareas esta semana</text>

      <g transform="translate(20, 84)">
        <rect width="240" height="28" rx="6" fill="#F7F7F8"/>
        <circle cx="14" cy="14" r="6" fill="#10B981"/>
        <path d="M 11 14 L 13 16 L 17 12" stroke="white" stroke-width="2" fill="none" stroke-linecap="round"/>
        <text x="28" y="18" fill="#9CA3AF" font-size="12" text-decoration="line-through">Estudiar para prueba de Suelos</text>
      </g>
      <g transform="translate(20, 118)">
        <rect width="240" height="28" rx="6" fill="#F7F7F8"/>
        <circle cx="14" cy="14" r="6" fill="#10B981"/>
        <path d="M 11 14 L 13 16 L 17 12" stroke="white" stroke-width="2" fill="none" stroke-linecap="round"/>
        <text x="28" y="18" fill="#9CA3AF" font-size="12" text-decoration="line-through">Ejercicios Estadística</text>
      </g>
      <g transform="translate(20, 152)">
        <rect width="240" height="28" rx="6" fill="#F7F7F8"/>
        <circle cx="14" cy="14" r="6" fill="none" stroke="#D1D5DB" stroke-width="2"/>
        <text x="28" y="18" fill="#4B5563" font-size="12">Presentación de Cultivos</text>
      </g>

      <g transform="translate(20, 186)">
        <text x="0" y="0" fill="#4B5563" font-size="11">Progreso semanal</text>
        <text x="240" y="0" fill="#4B5563" font-size="11" text-anchor="end">67%</text>
        <rect x="0" y="8" width="240" height="6" rx="3" fill="#F7F7F8"/>
        <rect x="0" y="8" width="161" height="6" rx="3" fill="#10B981"/>
      </g>
    </g>

    <!-- Joaquín -->
    <g transform="translate(592, 0)">
      <rect width="280" height="220" rx="12" fill="white" stroke="#E5E7EB" stroke-width="1"/>
      <circle cx="42" cy="42" r="22" fill="#F59E0B"/>
      <text x="42" y="49" fill="white" font-size="16" font-weight="600" text-anchor="middle">J</text>
      <text x="78" y="38" fill="#1D1D1F" font-size="15" font-weight="600">Joaquín Pérez</text>
      <text x="78" y="54" fill="#9CA3AF" font-size="11">1/3 tareas esta semana</text>

      <g transform="translate(20, 84)">
        <rect width="240" height="28" rx="6" fill="#F7F7F8"/>
        <circle cx="14" cy="14" r="6" fill="#10B981"/>
        <path d="M 11 14 L 13 16 L 17 12" stroke="white" stroke-width="2" fill="none" stroke-linecap="round"/>
        <text x="28" y="18" fill="#9CA3AF" font-size="12" text-decoration="line-through">Artículo Sustentabilidad</text>
      </g>
      <g transform="translate(20, 118)">
        <rect width="240" height="28" rx="6" fill="#F7F7F8"/>
        <circle cx="14" cy="14" r="6" fill="none" stroke="#D1D5DB" stroke-width="2"/>
        <text x="28" y="18" fill="#4B5563" font-size="12">Informe de cultivos</text>
      </g>
      <g transform="translate(20, 152)">
        <rect width="240" height="28" rx="6" fill="#F7F7F8"/>
        <circle cx="14" cy="14" r="6" fill="none" stroke="#D1D5DB" stroke-width="2"/>
        <text x="28" y="18" fill="#4B5563" font-size="12">Estudiar Suelos cap. 4</text>
      </g>

      <g transform="translate(20, 186)">
        <text x="0" y="0" fill="#4B5563" font-size="11">Progreso semanal</text>
        <text x="240" y="0" fill="#4B5563" font-size="11" text-anchor="end">33%</text>
        <rect x="0" y="8" width="240" height="6" rx="3" fill="#F7F7F8"/>
        <rect x="0" y="8" width="79" height="6" rx="3" fill="#10B981"/>
      </g>
    </g>

    <!-- Segunda fila -->
    <!-- Valentina -->
    <g transform="translate(0, 240)">
      <rect width="280" height="220" rx="12" fill="white" stroke="#E5E7EB" stroke-width="1"/>
      <circle cx="42" cy="42" r="22" fill="#10B981"/>
      <text x="42" y="49" fill="white" font-size="16" font-weight="600" text-anchor="middle">V</text>
      <text x="78" y="38" fill="#1D1D1F" font-size="15" font-weight="600">Valentina Cruz</text>
      <text x="78" y="54" fill="#9CA3AF" font-size="11">4/4 tareas esta semana</text>

      <g transform="translate(20, 84)">
        <rect width="240" height="28" rx="6" fill="#F7F7F8"/>
        <circle cx="14" cy="14" r="6" fill="#10B981"/>
        <path d="M 11 14 L 13 16 L 17 12" stroke="white" stroke-width="2" fill="none" stroke-linecap="round"/>
        <text x="28" y="18" fill="#9CA3AF" font-size="12" text-decoration="line-through">Prueba de Suelos</text>
      </g>
      <g transform="translate(20, 118)">
        <rect width="240" height="28" rx="6" fill="#F7F7F8"/>
        <circle cx="14" cy="14" r="6" fill="#10B981"/>
        <path d="M 11 14 L 13 16 L 17 12" stroke="white" stroke-width="2" fill="none" stroke-linecap="round"/>
        <text x="28" y="18" fill="#9CA3AF" font-size="12" text-decoration="line-through">Resumen Sustentabilidad</text>
      </g>
      <g transform="translate(20, 152)">
        <rect width="240" height="28" rx="6" fill="#F7F7F8"/>
        <circle cx="14" cy="14" r="6" fill="#10B981"/>
        <path d="M 11 14 L 13 16 L 17 12" stroke="white" stroke-width="2" fill="none" stroke-linecap="round"/>
        <text x="28" y="18" fill="#9CA3AF" font-size="12" text-decoration="line-through">Ejercicios Estadística</text>
      </g>

      <g transform="translate(20, 186)">
        <text x="0" y="0" fill="#4B5563" font-size="11">Progreso semanal</text>
        <text x="240" y="0" fill="#4B5563" font-size="11" text-anchor="end">100%</text>
        <rect x="0" y="8" width="240" height="6" rx="3" fill="#F7F7F8"/>
        <rect x="0" y="8" width="240" height="6" rx="3" fill="#10B981"/>
      </g>
    </g>

    <!-- Diego -->
    <g transform="translate(296, 240)">
      <rect width="280" height="220" rx="12" fill="white" stroke="#E5E7EB" stroke-width="1"/>
      <circle cx="42" cy="42" r="22" fill="#8B5CF6"/>
      <text x="42" y="49" fill="white" font-size="16" font-weight="600" text-anchor="middle">D</text>
      <text x="78" y="38" fill="#1D1D1F" font-size="15" font-weight="600">Diego Morales</text>
      <text x="78" y="54" fill="#9CA3AF" font-size="11">0/2 tareas esta semana</text>

      <g transform="translate(20, 84)">
        <rect width="240" height="28" rx="6" fill="#F7F7F8"/>
        <circle cx="14" cy="14" r="6" fill="none" stroke="#D1D5DB" stroke-width="2"/>
        <text x="28" y="18" fill="#4B5563" font-size="12">Informe de cultivos</text>
      </g>
      <g transform="translate(20, 118)">
        <rect width="240" height="28" rx="6" fill="#F7F7F8"/>
        <circle cx="14" cy="14" r="6" fill="none" stroke="#D1D5DB" stroke-width="2"/>
        <text x="28" y="18" fill="#4B5563" font-size="12">Estudiar Suelos</text>
      </g>

      <g transform="translate(20, 186)">
        <text x="0" y="0" fill="#4B5563" font-size="11">Progreso semanal</text>
        <text x="240" y="0" fill="#4B5563" font-size="11" text-anchor="end">0%</text>
        <rect x="0" y="8" width="240" height="6" rx="3" fill="#F7F7F8"/>
      </g>
    </g>

    <!-- Sofía -->
    <g transform="translate(592, 240)">
      <rect width="280" height="220" rx="12" fill="white" stroke="#E5E7EB" stroke-width="1"/>
      <circle cx="42" cy="42" r="22" fill="#06B6D4"/>
      <text x="42" y="49" fill="white" font-size="16" font-weight="600" text-anchor="middle">S</text>
      <text x="78" y="38" fill="#1D1D1F" font-size="15" font-weight="600">Sofía Henríquez</text>
      <text x="78" y="54" fill="#9CA3AF" font-size="11">1/2 tareas esta semana</text>

      <g transform="translate(20, 84)">
        <rect width="240" height="28" rx="6" fill="#F7F7F8"/>
        <circle cx="14" cy="14" r="6" fill="#10B981"/>
        <path d="M 11 14 L 13 16 L 17 12" stroke="white" stroke-width="2" fill="none" stroke-linecap="round"/>
        <text x="28" y="18" fill="#9CA3AF" font-size="12" text-decoration="line-through">Lectura Sustentabilidad</text>
      </g>
      <g transform="translate(20, 118)">
        <rect width="240" height="28" rx="6" fill="#F7F7F8"/>
        <circle cx="14" cy="14" r="6" fill="none" stroke="#D1D5DB" stroke-width="2"/>
        <text x="28" y="18" fill="#4B5563" font-size="12">Prueba de Suelos</text>
      </g>

      <g transform="translate(20, 186)">
        <text x="0" y="0" fill="#4B5563" font-size="11">Progreso semanal</text>
        <text x="240" y="0" fill="#4B5563" font-size="11" text-anchor="end">50%</text>
        <rect x="0" y="8" width="240" height="6" rx="3" fill="#F7F7F8"/>
        <rect x="0" y="8" width="120" height="6" rx="3" fill="#10B981"/>
      </g>
    </g>
  </g>

  <!-- ANOTACIÓN -->
  <g transform="translate(1080, 760)" fill="#9CA3AF" font-size="10">
    <text x="200" y="0" text-anchor="end">Wireframe · Pantalla 3/4 · Vista Mi grupo (Desktop)</text>
  </g>
</svg>
