<svg xmlns="http://www.w3.org/2000/svg" viewBox="0 0 400 820" font-family="-apple-system, BlinkMacSystemFont, 'Segoe UI', Inter, sans-serif">
  <rect width="400" height="820" fill="#FFFFFF"/>

  <!-- Status bar -->
  <text x="32" y="28" fill="#1D1D1F" font-size="13" font-weight="600">9:41</text>
  <g transform="translate(340, 16)">
    <rect width="20" height="12" rx="2" fill="none" stroke="#1D1D1F" stroke-width="1.5"/>
    <rect x="22" y="4" width="2" height="4" rx="1" fill="#1D1D1F"/>
  </g>

  <!-- TOPBAR -->
  <line x1="0" y1="100" x2="400" y2="100" stroke="#E5E7EB" stroke-width="1"/>
  <g transform="translate(16, 60)">
    <rect width="32" height="32" rx="8" fill="transparent"/>
    <line x1="8" y1="11" x2="24" y2="11" stroke="#1D1D1F" stroke-width="2" stroke-linecap="round"/>
    <line x1="8" y1="16" x2="24" y2="16" stroke="#1D1D1F" stroke-width="2" stroke-linecap="round"/>
    <line x1="8" y1="21" x2="24" y2="21" stroke="#1D1D1F" stroke-width="2" stroke-linecap="round"/>
  </g>
  <text x="64" y="84" fill="#1D1D1F" font-size="20" font-weight="600">Calendario</text>

  <g transform="translate(344, 60)">
    <rect width="36" height="36" rx="8" fill="#2563EB"/>
    <line x1="13" y1="18" x2="23" y2="18" stroke="white" stroke-width="2" stroke-linecap="round"/>
    <line x1="18" y1="13" x2="18" y2="23" stroke="white" stroke-width="2" stroke-linecap="round"/>
  </g>

  <!-- Toolbar de calendario -->
  <g transform="translate(16, 124)">
    <!-- Navegación -->
    <rect width="32" height="32" rx="8" fill="transparent"/>
    <path d="M 20 10 L 14 16 L 20 22" fill="none" stroke="#4B5563" stroke-width="2" stroke-linecap="round" stroke-linejoin="round"/>

    <text x="184" y="22" fill="#1D1D1F" font-size="16" font-weight="600" text-anchor="middle">Mayo 2026</text>

    <g transform="translate(336, 0)">
      <rect width="32" height="32" rx="8" fill="transparent"/>
      <path d="M 12 10 L 18 16 L 12 22" fill="none" stroke="#4B5563" stroke-width="2" stroke-linecap="round" stroke-linejoin="round"/>
    </g>
  </g>

  <!-- Switch semana/mes -->
  <g transform="translate(116, 172)">
    <rect width="168" height="36" rx="8" fill="#F7F7F8"/>
    <rect x="4" y="4" width="80" height="28" rx="6" fill="white"/>
    <text x="44" y="22" fill="#1D1D1F" font-size="13" font-weight="500" text-anchor="middle">Semana</text>
    <text x="124" y="22" fill="#4B5563" font-size="13" font-weight="500" text-anchor="middle">Mes</text>
  </g>

  <!-- Vista mensual mini -->
  <g transform="translate(16, 228)">
    <rect width="368" height="380" rx="12" fill="#F7F7F8" stroke="#E5E7EB" stroke-width="1"/>

    <!-- Encabezados de días -->
    <g transform="translate(12, 16)" fill="#9CA3AF" font-size="10" font-weight="600" letter-spacing="0.5">
      <text x="22" y="0" text-anchor="middle">L</text>
      <text x="72" y="0" text-anchor="middle">M</text>
      <text x="122" y="0" text-anchor="middle">M</text>
      <text x="172" y="0" text-anchor="middle">J</text>
      <text x="222" y="0" text-anchor="middle">V</text>
      <text x="272" y="0" text-anchor="middle">S</text>
      <text x="322" y="0" text-anchor="middle">D</text>
    </g>

    <!-- Grid mensual (6 semanas) -->
    <g transform="translate(12, 32)">
      <!-- Definir días tipo -->

      <!-- Sem 1 (muted, mes anterior) -->
      <g transform="translate(0, 0)" font-size="11">
        <rect width="44" height="44" rx="6" fill="white" opacity="0.4"/>
        <text x="6" y="14" fill="#9CA3AF">28</text>
        <rect x="50" width="44" height="44" rx="6" fill="white" opacity="0.4"/>
        <text x="56" y="14" fill="#9CA3AF">29</text>
        <rect x="100" width="44" height="44" rx="6" fill="white" opacity="0.4"/>
        <text x="106" y="14" fill="#9CA3AF">30</text>
        <rect x="150" width="44" height="44" rx="6" fill="white"/>
        <text x="156" y="14" fill="#1D1D1F">1</text>
        <rect x="200" width="44" height="44" rx="6" fill="white"/>
        <text x="206" y="14" fill="#1D1D1F">2</text>
        <rect x="250" width="44" height="44" rx="6" fill="white"/>
        <text x="256" y="14" fill="#1D1D1F">3</text>
        <rect x="300" width="44" height="44" rx="6" fill="white"/>
        <text x="306" y="14" fill="#1D1D1F">4</text>
      </g>

      <!-- Sem 2 -->
      <g transform="translate(0, 52)" font-size="11">
        <rect width="44" height="44" rx="6" fill="white"/>
        <text x="6" y="14" fill="#1D1D1F">5</text>
        <rect x="50" width="44" height="44" rx="6" fill="white"/>
        <text x="56" y="14" fill="#1D1D1F">6</text>
        <rect x="100" width="44" height="44" rx="6" fill="white"/>
        <text x="106" y="14" fill="#1D1D1F">7</text>
        <rect x="150" width="44" height="44" rx="6" fill="white"/>
        <text x="156" y="14" fill="#1D1D1F">8</text>
        <rect x="200" width="44" height="44" rx="6" fill="white"/>
        <text x="206" y="14" fill="#1D1D1F">9</text>
        <rect x="250" width="44" height="44" rx="6" fill="white"/>
        <text x="256" y="14" fill="#1D1D1F">10</text>
        <rect x="300" width="44" height="44" rx="6" fill="white"/>
        <text x="306" y="14" fill="#1D1D1F">11</text>
        <circle cx="312" cy="32" r="2" fill="#F59E0B"/>
      </g>

      <!-- Sem 3 (incluye hoy) -->
      <g transform="translate(0, 104)" font-size="11">
        <rect width="44" height="44" rx="6" fill="white"/>
        <text x="6" y="14" fill="#1D1D1F">12</text>
        <circle cx="12" cy="32" r="2" fill="#EF4444"/>
        <circle cx="18" cy="32" r="2" fill="#F59E0B"/>

        <!-- Hoy: 13 -->
        <rect x="50" width="44" height="44" rx="6" fill="#EFF6FF" stroke="#2563EB" stroke-width="1"/>
        <text x="56" y="14" fill="#2563EB" font-weight="600">13</text>
        <circle cx="62" cy="32" r="2" fill="#EF4444"/>

        <rect x="100" width="44" height="44" rx="6" fill="white"/>
        <text x="106" y="14" fill="#1D1D1F">14</text>
        <circle cx="112" cy="32" r="2" fill="#F59E0B"/>

        <rect x="150" width="44" height="44" rx="6" fill="white"/>
        <text x="156" y="14" fill="#1D1D1F">15</text>
        <rect x="200" width="44" height="44" rx="6" fill="white"/>
        <text x="206" y="14" fill="#1D1D1F">16</text>
        <rect x="250" width="44" height="44" rx="6" fill="white"/>
        <text x="256" y="14" fill="#1D1D1F">17</text>
        <rect x="300" width="44" height="44" rx="6" fill="white"/>
        <text x="306" y="14" fill="#1D1D1F">18</text>
      </g>

      <!-- Sem 4 -->
      <g transform="translate(0, 156)" font-size="11">
        <rect width="44" height="44" rx="6" fill="white"/>
        <text x="6" y="14" fill="#1D1D1F">19</text>
        <rect x="50" width="44" height="44" rx="6" fill="white"/>
        <text x="56" y="14" fill="#1D1D1F">20</text>
        <rect x="100" width="44" height="44" rx="6" fill="white"/>
        <text x="106" y="14" fill="#1D1D1F">21</text>
        <rect x="150" width="44" height="44" rx="6" fill="white"/>
        <text x="156" y="14" fill="#1D1D1F">22</text>
        <rect x="200" width="44" height="44" rx="6" fill="white"/>
        <text x="206" y="14" fill="#1D1D1F">23</text>
        <rect x="250" width="44" height="44" rx="6" fill="white"/>
        <text x="256" y="14" fill="#1D1D1F">24</text>
        <rect x="300" width="44" height="44" rx="6" fill="white"/>
        <text x="306" y="14" fill="#1D1D1F">25</text>
      </g>

      <!-- Sem 5 -->
      <g transform="translate(0, 208)" font-size="11">
        <rect width="44" height="44" rx="6" fill="white"/>
        <text x="6" y="14" fill="#1D1D1F">26</text>
        <rect x="50" width="44" height="44" rx="6" fill="white"/>
        <text x="56" y="14" fill="#1D1D1F">27</text>
        <rect x="100" width="44" height="44" rx="6" fill="white"/>
        <text x="106" y="14" fill="#1D1D1F">28</text>
        <rect x="150" width="44" height="44" rx="6" fill="white"/>
        <text x="156" y="14" fill="#1D1D1F">29</text>
        <rect x="200" width="44" height="44" rx="6" fill="white"/>
        <text x="206" y="14" fill="#1D1D1F">30</text>
        <rect x="250" width="44" height="44" rx="6" fill="white"/>
        <text x="256" y="14" fill="#1D1D1F">31</text>
        <rect x="300" width="44" height="44" rx="6" fill="white" opacity="0.4"/>
        <text x="306" y="14" fill="#9CA3AF">1</text>
      </g>
    </g>
  </g>

  <!-- Tareas del día seleccionado -->
  <g transform="translate(16, 632)">
    <text x="0" y="0" fill="#1D1D1F" font-size="14" font-weight="600">Hoy, 13 de mayo</text>

    <g transform="translate(0, 16)">
      <rect width="368" height="56" rx="8" fill="white" stroke="#E5E7EB" stroke-width="1"/>
      <rect x="0" y="0" width="3" height="56" rx="1.5" fill="#EF4444"/>
      <text x="16" y="22" fill="#1D1D1F" font-size="13" font-weight="500">Entregar informe de cultivos</text>
      <text x="16" y="38" fill="#9CA3AF" font-size="11">Hoy · Cultivos · Alta</text>
    </g>
  </g>

  <!-- Bottom nav -->
  <line x1="0" y1="740" x2="400" y2="740" stroke="#E5E7EB" stroke-width="1"/>
  <rect x="0" y="740" width="400" height="80" fill="white"/>

  <g transform="translate(40, 752)">
    <circle cx="20" cy="14" r="8" fill="none" stroke="#9CA3AF" stroke-width="1.5"/>
    <text x="20" y="44" fill="#9CA3AF" font-size="11" text-anchor="middle">Hoy</text>
  </g>
  <!-- Tab activo: Calendario -->
  <g transform="translate(120, 752)">
    <rect x="12" y="6" width="16" height="16" rx="2" fill="none" stroke="#2563EB" stroke-width="2"/>
    <text x="20" y="44" fill="#2563EB" font-size="11" font-weight="600" text-anchor="middle">Calendario</text>
  </g>
  <g transform="translate(200, 752)">
    <circle cx="16" cy="14" r="5" fill="none" stroke="#9CA3AF" stroke-width="1.5"/>
    <circle cx="26" cy="14" r="5" fill="none" stroke="#9CA3AF" stroke-width="1.5"/>
    <text x="20" y="44" fill="#9CA3AF" font-size="11" text-anchor="middle">Grupo</text>
  </g>
  <g transform="translate(280, 752)">
    <rect x="13" y="12" width="3" height="10" rx="1" fill="#9CA3AF"/>
    <rect x="18" y="8" width="3" height="14" rx="1" fill="#9CA3AF"/>
    <rect x="23" y="4" width="3" height="18" rx="1" fill="#9CA3AF"/>
    <text x="20" y="44" fill="#9CA3AF" font-size="11" text-anchor="middle">Resumen</text>
  </g>

  <g transform="translate(200, 808)" fill="#9CA3AF" font-size="9">
    <text x="0" y="0" text-anchor="middle">Wireframe móvil · Pantalla Calendario</text>
  </g>
</svg>
